<svg xmlns="http://www.w3.org/2000/svg" viewBox="0 0 100 100">
  <!-- Background circle -->
  <circle cx="50" cy="50" r="45" fill="#4F46E5"/>
  
  <!-- Open book shape -->
  <g fill="#ffffff">
    <!-- Left page -->
    <path d="M20 30 Q20 25 25 25 L48 25 L48 75 L25 75 Q20 75 20 70 Z"/>
    <!-- Right page -->
    <path d="M52 25 L75 25 Q80 25 80 30 L80 70 Q80 75 75 75 L52 75 Z"/>
    <!-- Center spine -->
    <rect x="47" y="25" width="6" height="50" fill="#4F46E5"/>
    <!-- Page lines left -->
    <rect x="25" y="35" width="18" height="2" fill="#4F46E5" opacity="0.3"/>
    <rect x="25" y="42" width="18" height="2" fill="#4F46E5" opacity="0.3"/>
    <rect x="25" y="49" width="18" height="2" fill="#4F46E5" opacity="0.3"/>
    <rect x="25" y="56" width="14" height="2" fill="#4F46E5" opacity="0.3"/>
    <!-- Page lines right -->
    <rect x="57" y="35" width="18" height="2" fill="#4F46E5" opacity="0.3"/>
    <rect x="57" y="42" width="18" height="2" fill="#4F46E5" opacity="0.3"/>
    <rect x="57" y="49" width="18" height="2" fill="#4F46E5" opacity="0.3"/>
    <rect x="57" y="56" width="14" height="2" fill="#4F46E5" opacity="0.3"/>
  </g>
  
  <!-- Small "EN" text -->
  <text x="50" y="68" font-family="Arial, sans-serif" font-size="12" font-weight="bold" fill="#4F46E5" text-anchor="middle"></text>
</svg>
